<?xml version="1.0" ?>

<!-- Uploaded to: SVG Repo, www.svgrepo.com, Generator: SVG Repo Mixer Tools -->
<svg fill="#4353ff" height="25px" width="25px" viewBox="0 0 32 32" xmlns="http://www.w3.org/2000/svg" >

<g data-name="37. Certificate" id="_37._Certificate">

<path d="M29,0H3A3,3,0,0,0,0,3V25a3,3,0,0,0,3,3H18v3a1,1,0,0,0,.42.81,1,1,0,0,0,.9.14l2.68-.9,2.68.9A1.19,1.19,0,0,0,25,32a.94.94,0,0,0,.58-.19A1,1,0,0,0,26,31V28h3a3,3,0,0,0,3-3V3A3,3,0,0,0,29,0ZM22,25a4,4,0,1,1,4-4A4,4,0,0,1,22,25Zm4-8.46A6,6,0,0,0,16,21a6.64,6.64,0,0,0,.09,1H8.87A4,4,0,0,0,6,19.13V8.87A4,4,0,0,0,8.87,6H23.13A4,4,0,0,0,26,8.87ZM24,29.61l-1.68-.56a1,1,0,0,0-.64,0L20,29.61v-3a5.89,5.89,0,0,0,4,0ZM30,25a1,1,0,0,1-1,1H26v-.54A5.91,5.91,0,0,0,28,20.26,1.19,1.19,0,0,0,28,20V8a1,1,0,0,0-1-1,2,2,0,0,1-2-2,1,1,0,0,0-1-1H8A1,1,0,0,0,7,5,2,2,0,0,1,5,7,1,1,0,0,0,4,8V20a1,1,0,0,0,1,1,2,2,0,0,1,2,2,1,1,0,0,0,1,1h8.81A6,6,0,0,0,18,25.46V26H3a1,1,0,0,1-1-1V3A1,1,0,0,1,3,2H29a1,1,0,0,1,1,1Z"/>

<path d="M14,10h4a1,1,0,0,0,0-2H14a1,1,0,0,0,0,2Z"/>

<path d="M20,12H12a1,1,0,0,0,0,2h8a1,1,0,0,0,0-2Z"/>

</g>

</svg>