<?xml version="1.0" standalone="no"?>
<!DOCTYPE svg PUBLIC "-//W3C//DTD SVG 20010904//EN"
 "http://www.w3.org/TR/2001/REC-SVG-20010904/DTD/svg10.dtd">
<svg version="1.0" xmlns="http://www.w3.org/2000/svg"
  height="25px" width="25px" viewBox="0 0 512.000000 512.000000"
 preserveAspectRatio="xMidYMid meet">

<g transform="translate(0.000000,512.000000) scale(0.100000,-0.100000)"
fill="#4353ff" stroke="none">
<path d="M1845 4360 c-891 -124 -1424 -203 -1449 -214 -52 -22 -121 -79 -153
-127 -56 -85 -76 -162 -80 -319 -7 -224 34 -387 129 -511 l36 -46 -107 -33
c-58 -18 -114 -39 -123 -48 -44 -38 3 -100 102 -136 124 -45 186 -208 172
-457 l-4 -75 -102 -33 c-231 -76 -324 -142 -229 -165 15 -4 45 -12 66 -17 l38
-10 -29 -37 c-66 -83 -100 -183 -109 -318 -10 -156 24 -349 82 -464 29 -58 98
-136 139 -157 17 -9 456 -155 975 -324 l944 -308 1399 339 c769 187 1403 342
1408 345 18 11 10 33 -20 58 -31 27 -137 71 -256 107 l-71 21 -7 46 c-18 135
3 296 50 383 31 58 69 89 137 115 63 24 97 56 97 93 0 35 -11 45 -65 61 -22 7
-46 14 -52 16 -7 3 7 25 35 53 103 106 151 246 159 469 8 193 -14 290 -87 399
l-20 32 131 32 c133 33 153 46 128 77 -20 24 -137 76 -256 113 l-101 32 -4 72
c-5 117 8 246 32 310 28 73 88 136 150 156 88 29 135 95 93 132 -16 14 -1741
540 -1761 537 -4 -1 -641 -90 -1417 -199z m-442 -697 c502 -163 914 -298 916
-300 6 -4 -14 -601 -20 -607 -3 -4 -421 110 -928 252 -704 198 -927 264 -945
281 -13 12 -35 44 -50 70 -73 135 -76 443 -4 543 21 31 68 57 101 58 10 0 429
-134 930 -297z m3293 128 c-35 -68 -48 -160 -44 -326 l3 -159 -1123 -279
c-618 -153 -1125 -277 -1126 -276 -3 4 15 602 18 606 3 3 2281 470 2284 467 2
-1 -4 -16 -12 -33z m-2 -805 c71 -29 106 -127 106 -292 0 -167 -39 -302 -106
-365 -17 -16 -250 -85 -945 -280 -508 -142 -925 -256 -928 -253 -6 6 -26 603
-20 608 12 9 1818 594 1837 595 12 1 38 -5 56 -13z m-3124 -356 c618 -127
1125 -232 1126 -233 3 -4 21 -602 18 -606 -1 -2 -508 123 -1125 276 l-1122
280 -1 189 c-1 194 -3 207 -51 318 -7 15 -5 17 11 12 10 -3 525 -109 1144
-236z m-322 -886 c499 -163 910 -299 914 -302 5 -6 -10 -603 -16 -610 -2 -1
-419 114 -926 257 l-924 259 -37 39 c-49 53 -78 136 -91 264 -20 187 15 329
92 370 19 11 45 19 58 19 13 0 431 -133 930 -296z m3275 80 c-26 -75 -28 -88
-28 -258 l0 -179 -1119 -279 c-616 -153 -1121 -276 -1124 -273 -6 6 13 593 20
600 3 3 112 28 242 54 188 39 243 48 269 40 29 -8 55 -2 158 32 87 28 347 86
864 193 407 84 741 152 743 151 1 -1 -10 -38 -25 -81z"/>
</g>
</svg>
